<!-- Created with Vectornator (http://vectornator.io/) -->
<svg height="24" stroke-miterlimit="10" viewBox="0 0 24 24" fill="none" stroke="currentColor" style="fill-rule:nonzero;clip-rule:evenodd;stroke-linecap:round;stroke-linejoin:round;" version="1.1" width="24" xml:space="preserve" xmlns="http://www.w3.org/2000/svg" xmlns:xlink="http://www.w3.org/1999/xlink">
<defs/>
<g id="Ebene-1">
<path d="M4.41216 3.94937C4.41216 3.02885 5.1584 2.28262 6.07892 2.28262C6.99944 2.28262 7.74568 3.02885 7.74568 3.94937C7.74568 4.8699 6.99944 5.61613 6.07892 5.61613C5.1584 5.61613 4.41216 4.8699 4.41216 3.94937Z" fill="none" opacity="1" stroke="#000000" stroke-linecap="butt" stroke-linejoin="round" stroke-width="1.8"/>
<path d="M9.29777 11.338C9.29777 9.72066 10.6089 8.40952 12.2263 8.40952C13.8437 8.40952 15.1548 9.72066 15.1548 11.338C15.1548 12.9554 13.8437 14.2666 12.2263 14.2666C10.6089 14.2666 9.29777 12.9554 9.29777 11.338Z" fill="none" opacity="1" stroke="#000000" stroke-linecap="butt" stroke-linejoin="round" stroke-width="1.8"/>
<path d="M18.4224 20.0506C18.4224 19.1301 19.1686 18.3839 20.0891 18.3839C21.0097 18.3839 21.7559 19.1301 21.7559 20.0506C21.7559 20.9712 21.0097 21.7174 20.0891 21.7174C19.1686 21.7174 18.4224 20.9712 18.4224 20.0506Z" fill="none" opacity="1" stroke="#000000" stroke-linecap="butt" stroke-linejoin="round" stroke-width="1.8"/>
<path d="M3.43203 18.9576C3.43203 17.7664 4.39768 16.8007 5.58885 16.8007C6.78003 16.8007 7.74568 17.7664 7.74568 18.9576C7.74568 20.1487 6.78003 21.1144 5.58885 21.1144C4.39768 21.1144 3.43203 20.1487 3.43203 18.9576Z" fill="none" opacity="1" stroke="#000000" stroke-linecap="butt" stroke-linejoin="round" stroke-width="1.8"/>
<path d="M17.4247 6.23744C17.4247 5.50168 18.0212 4.90524 18.7569 4.90524C19.4927 4.90524 20.0891 5.50168 20.0891 6.23744C20.0891 6.9732 19.4927 7.56965 18.7569 7.56965C18.0212 7.56965 17.4247 6.9732 17.4247 6.23744Z" fill="none" opacity="1" stroke="#000000" stroke-linecap="butt" stroke-linejoin="round" stroke-width="1.8"/>
<path d="M7.28583 5.41618L10.2334 9.06204" fill="none" opacity="1" stroke="#000000" stroke-linecap="butt" stroke-linejoin="round" stroke-width="1.8"/>
<path d="M14.4314 9.6548L17.4247 7.23911" fill="none" opacity="1" stroke="#000000" stroke-linecap="butt" stroke-linejoin="round" stroke-width="1.8"/>
<path d="M10.2334 13.5312L6.90623 17.4445" fill="none" opacity="1" stroke="#000000" stroke-linecap="butt" stroke-linejoin="round" stroke-width="1.8"/>
<path d="M14.0839 13.5312L19.0748 18.9576" fill="none" opacity="1" stroke="#000000" stroke-linecap="butt" stroke-linejoin="round" stroke-width="1.8"/>
</g>
</svg>
