<!-- Created with Vectornator (http://vectornator.io/) -->
<svg height="24" stroke-miterlimit="10" style="fill-rule:nonzero;clip-rule:evenodd;stroke-linecap:round;stroke-linejoin:round;" version="1.1" viewBox="0 0 24 24" width="24" xml:space="preserve" xmlns="http://www.w3.org/2000/svg" xmlns:xlink="http://www.w3.org/1999/xlink">
<defs/>
<g id="Ebene-1">
<path d="M9.44455 1.31502L14.5608 1.31502L14.5608 5.69333L9.44455 5.69333L9.44455 1.31502ZM12.0027 7.83376C12.0027 7.29865 12.0027 5.69333 12.0027 5.69333M8.52473 16.1586C8.52473 15.6235 8.52473 14.0182 8.52473 14.0182M11.0894 14.3448L5.97317 14.3601L5.96009 9.98182L11.0763 9.96653L11.0894 14.3448ZM8.51819 9.97417L8.5118 7.83376L8.5118 7.83376L11.998 7.83376L15.4882 7.83376L15.4753 7.83376L15.4817 9.97417M12.0091 18.299L12.0027 16.1586L12.0027 16.1586L15.4889 16.1586L18.9791 16.1586L18.9661 16.1586L18.9725 18.299M18.0528 14.3448L12.9366 14.3601L12.9236 9.98182L18.0398 9.96653L18.0528 14.3448ZM21.5346 22.6697L16.4184 22.685L16.4053 18.3067L21.5215 18.2914L21.5346 22.6697ZM7.5947 22.6697L2.4785 22.685L2.46542 18.3067L7.58162 18.2914L7.5947 22.6697ZM5.02352 18.299L5.01713 16.1586L5.01713 16.1586L8.50333 16.1586L11.9935 16.1586L11.9806 16.1586L11.987 18.299M14.5582 22.6697L9.44198 22.685L9.4289 18.3067L14.5451 18.2914L14.5582 22.6697Z" fill="none" opacity="1" stroke="#000000" stroke-linecap="butt" stroke-linejoin="round" stroke-width="1.5"/>
</g>
</svg>
