<svg xmlns="http://www.w3.org/2000/svg" xmlns:vectornator="http://vectornator.io" xml:space="preserve" stroke-miterlimit="10" viewBox="0 0 800 800"><defs><filter id="b" width="63.46" height="63.46" x="248.239" y="367.969" color-interpolation-filters="sRGB" filterUnits="userSpaceOnUse"><feGaussianBlur in="SourceGraphic" result="Blur" stdDeviation="3"/></filter><filter id="c" width="61.913" height="61.913" x="537.75" y="72.626" color-interpolation-filters="sRGB" filterUnits="userSpaceOnUse"><feGaussianBlur in="SourceGraphic" result="Blur" stdDeviation="1"/></filter><filter id="d" width="61.913" height="61.913" x="371.144" y="654.418" color-interpolation-filters="sRGB" filterUnits="userSpaceOnUse"><feGaussianBlur in="SourceGraphic" result="Blur" stdDeviation="1"/></filter><filter id="f" width="273.868" height="273.868" x="576.247" y="618.958" color-interpolation-filters="sRGB" filterUnits="userSpaceOnUse"><feGaussianBlur in="SourceGraphic" result="Blur" stdDeviation="6"/></filter><filter id="g" width="443.517" height="443.517" x="-93.997" y="-248.847" color-interpolation-filters="sRGB" filterUnits="userSpaceOnUse"><feGaussianBlur in="SourceGraphic" result="Blur" stdDeviation="12.16"/></filter><clipPath id="e"><path d="M30.53 85.439h766.393v602.447H30.53z"/></clipPath></defs><clipPath id="a"><path d="M0 0h800v800H0z"/></clipPath><g vectornator:layerName="Ebene 1" clip-path="url(#a)"><path fill="#397367" d="M-5.312-8.008H809.6V811.9H-5.312V-8.009Z"/><path fill="#fff" stroke="#353535" stroke-linecap="round" stroke-linejoin="round" stroke-width="5" d="M258.239 399.698c0-12.001 9.729-21.729 21.73-21.729 12.001 0 21.73 9.728 21.73 21.729 0 12.002-9.729 21.73-21.73 21.73-12.001 0-21.73-9.728-21.73-21.73Z" filter="url(#b)"/><path fill="#fff" stroke="#353535" stroke-linecap="round" stroke-linejoin="round" stroke-width="6" d="M543.25 103.582c0-14.059 11.397-25.456 25.456-25.456 14.06 0 25.457 11.397 25.457 25.456 0 14.06-11.397 25.457-25.457 25.457-14.059 0-25.456-11.397-25.456-25.457Z" filter="url(#c)"/><path fill="#fff" stroke="#353535" stroke-linecap="round" stroke-linejoin="round" stroke-width="6" d="M376.644 685.374c0-14.059 11.397-25.456 25.456-25.456s25.456 11.397 25.456 25.456-11.397 25.456-25.456 25.456-25.456-11.397-25.456-25.456Z" filter="url(#d)"/><path fill="#397367" fill-opacity=".647" d="M-7.312-10.008H807.6V809.9H-7.312V-10.01Z"/><path fill="#363636" d="M345.75 506.219c0 35.133-12.813 64.48-38.44 88.04-25.213 23.56-56.42 35.34-93.62 35.34-16.946 0-36.166-4.34-57.66-13.02-12.4-4.96-22.526-7.44-30.38-7.44-7.44 0-22.526 5.58-45.26 16.74l-42.78-102.92 15.5-6.82c60.347 62.827 114.7 94.24 163.06 94.24 23.974 0 44.847-8.06 62.62-24.18 17.774-15.707 26.66-35.133 26.66-58.28 0-27.693-12.4-48.98-37.2-63.86-14.466-9.093-38.646-17.773-72.54-26.04-47.533-11.573-80.806-23.56-99.82-35.96-30.586-19.84-45.88-48.98-45.88-87.42 0-33.893 13.64-61.587 40.92-83.08 23.147-17.773 47.947-26.66 74.4-26.66 9.507 0 23.354 1.86 41.54 5.58 18.187 3.72 31.62 5.58 40.3 5.58 11.987 0 24.18-2.48 36.58-7.44l40.3 97.34-15.5 6.2c-42.573-59.52-89.073-89.28-139.5-89.28-23.973 0-43.813 7.233-59.52 21.7-15.293 14.053-22.94 31-22.94 50.84 0 24.8 11.574 44.227 34.72 58.28 15.707 9.507 43.4 19.013 83.08 28.52 39.267 9.093 68.614 19.633 88.04 31.62 35.547 21.907 53.32 52.7 53.32 92.38Zm424.7 112.22H602.43v-15.5c31.414-1.24 47.12-7.027 47.12-17.36 0-2.48-1.653-7.027-4.96-13.64l-122.14-168.02-53.94 51.46v105.4c0 17.36 5.374 29.14 16.12 35.34 7.44 4.133 20.047 6.407 37.82 6.82v15.5h-164.3v-15.5c20.254-.413 33.894-3.307 40.92-8.68 9.92-7.027 14.88-22.113 14.88-45.26v-274.04c0-18.6-5.166-31-15.5-37.2-7.026-3.72-19.84-5.787-38.44-6.2v-15.5h162.44v15.5c-19.84.413-33.066 2.48-39.68 6.2-9.506 5.787-14.26 17.567-14.26 35.34v159.34l148.18-138.26c17.774-16.533 26.66-30.173 26.66-40.92 0-12.813-13.64-20.047-40.92-21.7v-15.5h149.42v15.5c-29.76 1.24-57.246 13.433-82.46 36.58l-107.88 99.2 141.98 198.4c10.747 14.88 21.08 24.8 31 29.76 8.267 4.133 20.254 6.613 35.96 7.44v15.5Z" clip-path="url(#e)"/><path fill="#fff" stroke="#353535" stroke-linecap="round" stroke-linejoin="round" stroke-width="7" d="M585.941 220.545c0-16.317 13.228-29.545 29.545-29.545s29.544 13.228 29.544 29.545-13.227 29.544-29.544 29.544-29.545-13.227-29.545-29.544Zm129.055 0c0-16.317 13.228-29.545 29.545-29.545s29.545 13.228 29.545 29.545-13.228 29.545-29.545 29.545-29.545-13.228-29.545-29.545ZM683.623 72.559c0-16.317 13.227-29.545 29.545-29.545 16.317 0 29.544 13.228 29.544 29.545s-13.227 29.545-29.544 29.545c-16.318 0-29.545-13.228-29.545-29.545Z"/><path fill="#fff" stroke="#353535" stroke-linecap="round" stroke-linejoin="round" stroke-width="16" d="M599.247 755.892c0-62.924 51.01-113.934 113.934-113.934s113.934 51.01 113.934 113.934-51.01 113.934-113.934 113.934-113.934-51.01-113.934-113.934Z" filter="url(#f)"/><path fill="#fff" stroke="#353535" stroke-linecap="round" stroke-linejoin="round" stroke-width="22" d="M-52.597-27.089c0-99.609 80.75-180.358 180.359-180.358 99.609 0 180.358 80.749 180.358 180.358 0 99.61-80.749 180.359-180.358 180.359-99.61 0-180.359-80.75-180.359-180.359Z" filter="url(#g)"/></g></svg>