<svg xmlns="http://www.w3.org/2000/svg" xmlns:vectornator="http://vectornator.io" xml:space="preserve" stroke-linecap="round" stroke-linejoin="round" stroke-miterlimit="10" clip-rule="evenodd" viewBox="0 0 400 400"><defs><filter id="b" width="63.46" height="63.46" x="249.422" y="39.485" color-interpolation-filters="sRGB" filterUnits="userSpaceOnUse"><feGaussianBlur in="SourceGraphic" result="Blur" stdDeviation="3"/></filter><filter id="c" width="66.912" height="66.913" x="136.687" y="105.162" color-interpolation-filters="sRGB" filterUnits="userSpaceOnUse"><feGaussianBlur in="SourceGraphic" result="Blur" stdDeviation="2"/></filter><filter id="d" width="63.46" height="63.46" x="123.231" y="257.094" color-interpolation-filters="sRGB" filterUnits="userSpaceOnUse"><feGaussianBlur in="SourceGraphic" result="Blur" stdDeviation="3"/></filter><filter id="g" width="157.307" height="157.307" x="288.321" y="226.792" color-interpolation-filters="sRGB" filterUnits="userSpaceOnUse"><feGaussianBlur in="SourceGraphic" result="Blur" stdDeviation="7"/></filter><filter id="h" width="261.436" height="261.436" x="-98.865" y="-90.37" color-interpolation-filters="sRGB" filterUnits="userSpaceOnUse"><feGaussianBlur in="SourceGraphic" result="Blur" stdDeviation="12.464"/></filter></defs><clipPath id="a"><path d="M0 0h400v400H0z"/></clipPath><g vectornator:layerName="Ebene 1" clip-path="url(#a)"><path fill="#fff" fill-opacity=".647" d="M-.584-.034h408.998v409.957H-.584V-.034Z"/><path fill="#397367" stroke="#353535" stroke-width="5" d="M259.422 71.215c0-12.001 9.729-21.73 21.73-21.73 12.001 0 21.73 9.729 21.73 21.73 0 12-9.729 21.73-21.73 21.73-12.001 0-21.73-9.73-21.73-21.73Z" filter="url(#b)"/><path fill="#397367" stroke="#353535" stroke-width="6" d="M144.687 138.619c0-14.059 11.397-25.457 25.456-25.457s25.456 11.398 25.456 25.457c0 14.059-11.397 25.456-25.456 25.456s-25.456-11.397-25.456-25.456Z" filter="url(#c)"/><path fill="#397367" stroke="#353535" stroke-width="5" d="M133.231 288.824c0-12.001 9.729-21.73 21.73-21.73 12.001 0 21.73 9.729 21.73 21.73 0 12.001-9.729 21.73-21.73 21.73-12.001 0-21.73-9.729-21.73-21.73Z" filter="url(#d)"/><path fill="#fff" fill-opacity=".647" d="M-5.503-6.617h415.455v420.291H-5.503V-6.617Z"/><clipPath id="e"><path d="M-152.141 106.548h1062.67v617.324h-1062.67V106.548Z"/></clipPath><g clip-path="url(#e)"><path fill="#363636" d="M61.879 391.528c0 23.8-8.68 43.68-26.04 59.64-17.08 15.96-38.22 23.94-63.42 23.94-11.48 0-24.5-2.94-39.06-8.82-8.4-3.36-15.26-5.04-20.58-5.04-5.04 0-15.26 3.78-30.66 11.34l-28.98-69.72 10.5-4.62c40.88 42.56 77.7 63.84 110.46 63.84 16.24 0 30.38-5.46 42.42-16.38 12.04-10.64 18.06-23.8 18.06-39.48 0-18.76-8.4-33.18-25.2-43.26-9.8-6.16-26.18-12.04-49.14-17.64-32.2-7.84-54.74-15.96-67.62-24.36-20.72-13.44-31.08-33.18-31.08-59.22 0-22.96 9.24-41.72 27.72-56.28 15.68-12.04 32.48-18.06 50.4-18.06 6.44 0 15.82 1.26 28.14 3.78 12.32 2.52 21.42 3.78 27.3 3.78 8.12 0 16.38-1.68 24.78-5.04l27.3 65.94-10.5 4.2c-28.84-40.32-60.34-60.48-94.5-60.48-16.24 0-29.68 4.9-40.32 14.7-10.36 9.52-15.54 21-15.54 34.44 0 16.8 7.84 29.96 23.52 39.48 10.64 6.44 29.4 12.88 56.28 19.32 26.6 6.16 46.48 13.3 59.64 21.42 24.08 14.84 36.12 35.7 36.12 62.58Z"/></g><clipPath id="f"><path d="M-152.141 106.548h1062.67v617.324h-1062.67V106.548Z"/></clipPath><g clip-path="url(#f)"><path fill="#363636" d="M349.579 467.548h-113.82v-10.5c21.28-.84 31.92-4.76 31.92-11.76 0-1.68-1.12-4.76-3.36-9.24l-82.74-113.82-36.54 34.86v71.4c0 11.76 3.64 19.74 10.92 23.94 5.04 2.8 13.58 4.34 25.62 4.62v10.5h-111.3v-10.5c13.72-.28 22.96-2.24 27.72-5.88 6.72-4.76 10.08-14.98 10.08-30.66v-185.64c0-12.6-3.5-21-10.5-25.2-4.76-2.52-13.44-3.92-26.04-4.2v-10.5h110.04v10.5c-13.44.28-22.4 1.68-26.88 4.2-6.44 3.92-9.66 11.9-9.66 23.94v107.94l100.38-93.66c12.04-11.2 18.06-20.44 18.06-27.72 0-8.68-9.24-13.58-27.72-14.7v-10.5h101.22v10.5c-20.16.84-38.78 9.1-55.86 24.78l-73.08 67.2 96.18 134.4c7.28 10.08 14.28 16.8 21 20.16 5.6 2.8 13.72 4.48 24.36 5.04v10.5Z"/></g><path fill="#397367" stroke="#353535" stroke-width="7" d="M221.319 197.042c0-11.621 9.421-21.042 21.042-21.042 11.621 0 21.041 9.421 21.041 21.042 0 11.621-9.42 21.041-21.041 21.041s-21.042-9.42-21.042-21.041Zm92.278-.001c0-11.62 9.421-21.041 21.042-21.041 11.62 0 21.041 9.421 21.041 21.041 0 11.621-9.421 21.042-21.041 21.042-11.621 0-21.042-9.421-21.042-21.042Z"/><path fill="#397367" stroke="#353535" stroke-width="16" d="M313.821 305.445c0-29.355 23.797-53.153 53.153-53.153 29.356 0 53.154 23.798 53.154 53.153 0 29.356-23.798 53.154-53.154 53.154-29.356 0-53.153-23.798-53.153-53.154Z" filter="url(#g)"/><path fill="#397367" stroke="#353535" stroke-width="22" d="M-56.704 40.349c0-48.91 39.648-88.558 88.557-88.558 48.91 0 88.558 39.649 88.558 88.558 0 48.909-39.649 88.557-88.558 88.557-48.909 0-88.557-39.648-88.557-88.557Z" filter="url(#h)"/><path fill="#397367" stroke="#353535" stroke-width="7" d="M379.003 101.205c0-11.621 9.42-21.042 21.041-21.042s21.041 9.42 21.041 21.042c0 11.621-9.42 21.041-21.041 21.041s-21.041-9.42-21.041-21.041Z"/></g></svg>